<svg width="107" height="108" viewBox="0 0 107 108" fill="none" xmlns="http://www.w3.org/2000/svg">
<circle cx="53.5" cy="54.3213" r="53.5" fill="#003F74"/>
<path d="M49.8718 33.6842C51.4344 33.6842 52.7637 32.6697 53.2381 31.2652H59.5478C60.174 31.2652 60.6817 30.7575 60.6817 30.1313C60.6817 29.5051 60.174 28.9974 59.5478 28.9974H53.2381C52.7637 27.5928 51.4344 26.5784 49.8718 26.5784C47.9127 26.5784 46.3188 28.1722 46.3188 30.1313C46.3188 32.0904 47.9127 33.6842 49.8718 33.6842ZM49.8718 28.8462C50.5804 28.8462 51.1569 29.4227 51.1569 30.1313C51.1569 30.8399 50.5804 31.4164 49.8718 31.4164C49.1631 31.4164 48.5867 30.8399 48.5867 30.1313C48.5867 29.4227 49.1631 28.8462 49.8718 28.8462Z" fill="white"/>
<path d="M48.662 41.0923H46.243C45.6168 41.0923 45.1091 41.6 45.1091 42.2262C45.1091 42.8524 45.6168 43.3601 46.243 43.3601H48.662C49.2883 43.3601 49.796 42.8524 49.796 42.2262C49.796 41.6 49.2883 41.0923 48.662 41.0923Z" fill="white"/>
<path d="M54.7097 41.0923H52.2906C51.6644 41.0923 51.1567 41.6 51.1567 42.2262C51.1567 42.8524 51.6644 43.3601 52.2906 43.3601H54.7097C55.3359 43.3601 55.8436 42.8524 55.8436 42.2262C55.8436 41.6 55.3359 41.0923 54.7097 41.0923Z" fill="white"/>
<path d="M60.7573 41.0923H58.3383C57.712 41.0923 57.2043 41.6 57.2043 42.2262C57.2043 42.8524 57.712 43.3601 58.3383 43.3601H60.7573C61.3835 43.3601 61.8912 42.8524 61.8912 42.2262C61.8912 41.6 61.3835 41.0923 60.7573 41.0923Z" fill="white"/>
<path d="M71.5671 60.5824V40.9412H71.6427C73.6018 40.9412 75.1956 39.3473 75.1956 37.3882C75.1956 35.4292 73.6018 33.8353 71.6427 33.8353H66.7291V32.5502C66.7291 25.2557 60.7947 19.3213 53.5002 19.3213C46.2056 19.3213 40.2712 25.2557 40.2712 32.5502V33.8353H35.3576C33.3985 33.8353 31.8047 35.4292 31.8047 37.3882C31.8047 39.3473 33.3985 40.9412 35.3576 40.9412H35.4332V60.5824C34.6141 60.7819 33.838 61.2008 33.1995 61.8393C31.3427 63.6962 31.3427 66.7175 33.1995 68.5744C33.6424 69.0172 34.3604 69.0172 34.803 68.5744C35.2459 68.1315 35.2459 67.4136 34.803 66.9709C33.8305 65.9981 33.8305 64.4157 34.803 63.4429C35.2743 62.9718 35.9007 62.7122 36.567 62.7122C37.2332 62.7122 37.8598 62.9717 38.3309 63.4429C39.3035 64.4157 39.3035 65.9981 38.3309 66.9709C37.888 67.4137 37.888 68.1317 38.3309 68.5744C38.5522 68.7957 38.8425 68.9065 39.1326 68.9065C39.4227 68.9065 39.713 68.7959 39.9344 68.5744C41.7913 66.7175 41.7913 63.6962 39.9344 61.8393C39.2959 61.2008 38.5198 60.7819 37.7007 60.5824V40.9412H40.2709V54.3213C40.2709 56.2804 41.8647 57.8742 43.8238 57.8742H46.3187V59.1593C46.3187 60.9261 47.6152 62.3953 49.3067 62.6669L49.8623 66.0004C46.3676 67.4368 43.8997 70.8764 43.8997 74.8828V79.7209C43.8997 80.3471 44.4074 80.8548 45.0336 80.8548H48.7377V84.5589C48.7377 87.1849 50.8742 89.3213 53.5002 89.3213C56.1261 89.3213 58.2626 87.1849 58.2626 84.5589V80.8548H61.9667C62.5929 80.8548 63.1006 80.3471 63.1006 79.7209V74.8828C63.1006 70.8764 60.6327 67.4368 57.138 66.0004L57.6936 62.6669C59.3851 62.3953 60.6816 60.9261 60.6816 59.1593V57.8742H63.1762C65.1353 57.8742 66.7291 56.2804 66.7291 54.3213V40.9412H69.2993V60.5824C68.4801 60.7819 67.7041 61.2008 67.0656 61.8393C65.2087 63.6962 65.2087 66.7175 67.0656 68.5744C67.5085 69.0172 68.2265 69.0172 68.6691 68.5744C69.112 68.1315 69.112 67.4136 68.6691 66.9709C67.6965 65.9981 67.6965 64.4157 68.6691 63.4429C69.1404 62.9718 69.7668 62.7122 70.433 62.7122C71.0993 62.7122 71.7258 62.9717 72.1969 63.4429C73.1695 64.4157 73.1695 65.9981 72.1969 66.9709C71.7541 67.4137 71.7541 68.1317 72.1969 68.5744C72.4183 68.7957 72.7086 68.9065 72.9987 68.9065C73.2888 68.9065 73.5791 68.7959 73.8005 68.5744C75.6573 66.7175 75.6573 63.6962 73.8005 61.8393C73.1623 61.2008 72.3862 60.7819 71.5671 60.5824ZM42.539 38.5222H64.4613V50.7684H42.539V38.5222ZM42.539 32.5502C42.539 26.5062 47.4561 21.5891 53.5002 21.5891C59.5442 21.5891 64.4613 26.5062 64.4613 32.5502V36.2543H42.539V32.5502ZM35.3576 38.6733C34.649 38.6733 34.0725 38.0969 34.0725 37.3882C34.0725 36.6796 34.649 36.1031 35.3576 36.1031H40.2712V38.6733H35.3576ZM55.9948 84.5589C55.9948 85.9344 54.8757 87.0535 53.5002 87.0535C52.1246 87.0535 51.0056 85.9344 51.0056 84.5589V74.8828C51.0056 73.5073 52.1246 72.3882 53.5002 72.3882C54.8757 72.3882 55.9948 73.5073 55.9948 74.8828V84.5589ZM60.8328 74.8828V78.587H58.2626V74.8828C58.2626 72.2569 56.1261 70.1204 53.5002 70.1204C50.8742 70.1204 48.7377 72.2569 48.7377 74.8828V78.587H46.1675V74.8828C46.1675 70.8396 49.4569 67.5502 53.5002 67.5502C57.5434 67.5502 60.8328 70.8396 60.8328 74.8828ZM53.5002 65.2824C53.0106 65.2824 52.5297 65.3198 52.0598 65.3907L51.6133 62.7122H55.387L54.9405 65.3907C54.4706 65.3198 53.9897 65.2824 53.5002 65.2824ZM58.4138 59.1593C58.4138 59.8679 57.8373 60.4444 57.1287 60.4444H49.8716C49.163 60.4444 48.5865 59.8679 48.5865 59.1593V57.8742H58.4138V59.1593ZM63.1762 55.6064H59.5477H47.4526H43.8241C43.1155 55.6064 42.539 55.0299 42.539 54.3213V53.0362H64.4613V54.3213C64.4613 55.0299 63.8848 55.6064 63.1762 55.6064ZM66.7291 36.1031H71.6427C72.3513 36.1031 72.9278 36.6796 72.9278 37.3882C72.9278 38.0969 72.3513 38.6733 71.6427 38.6733H66.7291V36.1031Z" fill="white"/>
</svg>
