<svg width="128" height="127" viewBox="0 0 128 127" fill="none" xmlns="http://www.w3.org/2000/svg">
<circle cx="63.7515" cy="63.5" r="63.5" fill="#003F74"/>
<path d="M95.4695 84.6807C94.9314 79.3883 90.6381 75.2324 85.4943 75.2324C82.2783 75.2324 79.243 76.8896 77.3666 79.6164C77.0016 79.5506 76.6316 79.5184 76.2591 79.5184C73.3491 79.5184 70.7641 81.5506 69.9049 84.432C67.513 85.8895 65.9966 88.6085 65.9966 91.5221C65.9966 96.0413 69.4897 99.7165 73.7831 99.7165H87.2967C87.3719 99.7165 87.4447 99.7114 87.5111 99.7062C87.5889 99.7114 87.6667 99.7165 87.747 99.7165H93.1529C97.1979 99.7165 100.489 96.254 100.489 91.9989C100.488 88.6484 98.4296 85.7181 95.4695 84.6807ZM93.1529 97.1393L87.6943 97.1354L87.481 97.1277L73.7819 97.1393C70.8719 97.1393 68.5039 94.6187 68.5039 91.5221C68.5039 89.3765 69.6942 87.3856 71.5355 86.4513L72.0811 86.1755L72.209 85.5634C72.6242 83.5532 74.3275 82.0957 76.2591 82.0957C76.6918 82.0957 77.122 82.1692 77.5384 82.3122L78.513 82.6485L79.0247 81.7323C80.3994 79.2762 82.8177 77.8097 85.4943 77.8097C89.5895 77.8097 92.9635 81.3496 93.0174 85.7L93.0312 86.7477L94.0334 86.9474C96.3199 87.4036 97.9793 89.5273 97.9793 91.9976C97.9793 94.8326 95.8144 97.1393 93.1529 97.1393Z" fill="white"/>
<path d="M67.0617 81.4683C68.7712 78.0946 72.0286 75.8795 75.681 75.6694C78.2724 72.9285 81.8194 71.3667 85.4945 71.3667C88.669 71.3667 91.6605 72.5471 94.0461 74.5303C94.1653 74.4182 94.3007 74.3073 94.4061 74.1952V72.5342V71.8899V71.2455V62.082C92.7529 63.2482 90.6081 64.2689 88.1034 65.1322C82.8229 67.0291 75.5004 68.3564 66.3179 68.6154C65.2266 68.6502 64.1354 68.6683 63.0492 68.6683C61.9593 68.6683 60.8643 68.6502 59.7706 68.6141C50.5629 68.3551 43.2254 67.0188 37.9424 65.1129C35.4602 64.2534 33.333 63.2405 31.6924 62.082V71.2455V71.8899V72.5342V74.1952C35.262 78.0238 47.2379 81.5546 63.0492 81.5546C64.4202 81.5546 65.7509 81.5186 67.0617 81.4683Z" fill="white"/>
<path d="M60.0829 64.614C60.4918 64.6256 60.8994 64.6372 61.3146 64.6437C61.8865 64.654 62.4647 64.6591 63.0492 64.6591C63.6337 64.6591 64.2107 64.654 64.7839 64.645C65.1978 64.6385 65.6067 64.6256 66.0156 64.6153C66.1611 64.6114 66.3091 64.6089 66.4533 64.605C80.5677 64.1424 91.0973 60.8486 94.4061 57.301V55.6387V54.9943V54.35V45.1865C88.3003 49.4944 75.3963 51.7728 63.0492 51.7728C50.7022 51.7728 37.7969 49.4944 31.6924 45.1865V54.35V54.9943V55.6387V57.2997C35.0012 60.8486 45.5308 64.1424 59.6451 64.6037C59.7894 64.6076 59.9374 64.6102 60.0829 64.614Z" fill="white"/>
<path d="M94.4061 40.5693V38.2421V37.5977C94.4061 37.3812 94.3358 37.1867 94.2368 37.0075C92.8282 31.4651 82.0076 26 63.0492 26C44.1373 26 33.3267 31.4381 31.8755 36.9663C31.7689 37.1557 31.6924 37.3632 31.6924 37.5977V38.2421V40.5693C35.2495 44.385 47.14 47.9068 63.0492 47.9068C78.9584 47.9068 90.8477 44.385 94.4061 40.5693Z" fill="white"/>
<path d="M62.2325 91.5206C62.2325 89.3918 62.7982 87.3338 63.7991 85.5272C63.547 85.5285 63.3036 85.5362 63.0478 85.5362C47.5625 85.5362 36.8761 82.5852 31.6909 78.834V89.4021C31.6909 89.6109 31.7449 89.808 31.8377 89.9833C33.319 96.2912 46.5716 101 63.0478 101C64.2393 101 65.4071 100.969 66.561 100.92C63.927 98.7074 62.2325 95.3182 62.2325 91.5206Z" fill="white"/>
</svg>
