<svg width="107" height="108" viewBox="0 0 107 108" fill="none" xmlns="http://www.w3.org/2000/svg">
<circle cx="53.5" cy="54.3213" r="53.5" fill="#003F74"/>
<path d="M77.414 54.7342C77.3215 54.0491 76.921 53.4709 76.341 53.0994C75.9567 52.8529 75.48 52.8511 75.0777 53.0232C75.0722 51.5442 75.0777 50.0652 75.0396 48.5881C75.0015 46.9296 75.0922 45.273 75.1538 43.6182C75.1755 43.0726 74.8257 42.6014 74.3563 42.3694C74.3146 41.7459 74.2711 41.1224 74.2167 40.5007C74.1823 40.1291 74.1515 39.7576 74.0989 39.3896C74.088 39.3171 74.079 39.2446 74.0681 39.1721C74.0409 38.98 73.9539 38.6483 73.8452 38.5015C73.6875 38.2949 73.5534 38.0647 73.3087 37.9469C73.1292 37.8617 72.957 37.7783 72.7613 37.7511C72.571 37.7221 72.3752 37.7221 72.1831 37.7004C72.1414 37.0896 72.1088 36.4787 72.0816 35.8679C72.1505 35.7102 72.1885 35.5399 72.1885 35.3622C72.1885 34.6463 71.5922 34.0609 70.8835 34.0536C69.4245 34.0427 67.9654 34.0645 66.5064 34.0029C65.1941 33.9485 63.8837 33.8724 62.566 33.8452C59.7983 33.7944 57.0252 33.8144 54.2539 33.7944C51.5351 33.7763 48.82 33.7219 46.0958 33.7147C44.7672 33.7129 43.4387 33.6875 42.1119 33.6875C40.8323 33.6875 39.5509 33.7111 38.273 33.7999C36.8629 33.8996 35.4347 34.2222 34.1369 34.7877C32.87 35.3351 31.7317 36.4262 31.3384 37.7711C31.2315 38.139 31.1771 38.5142 31.1282 38.8966C31.0865 39.2066 31.0502 39.5237 31.0865 39.8355C31.1318 40.2252 31.1952 40.6022 31.2985 40.9756C30.8726 41.1912 30.5735 41.6262 30.5681 42.1283C30.55 43.5747 30.5572 45.0192 30.53 46.462C30.5065 47.7742 30.4757 49.0847 30.4612 50.3933C30.4376 53.0432 30.4231 55.6894 30.4612 58.3411C30.4884 60.1826 30.53 62.0241 30.5373 63.8656C30.5482 65.7144 30.5717 67.5649 30.53 69.4173C30.5246 69.6475 30.6062 69.8541 30.7185 70.0426C30.9922 70.7495 31.2786 71.46 31.6502 72.1197C31.8024 72.388 31.9945 72.6363 32.1794 72.8846C32.3516 73.1112 32.5274 73.3359 32.7032 73.5589C32.9715 73.8996 33.3739 74.1679 33.7327 74.3981C34.5339 74.9219 35.4673 75.2554 36.408 75.4203C37.2236 75.5617 38.0465 75.6994 38.873 75.7502C40.3737 75.839 41.8817 75.8499 43.3879 75.8771C44.8198 75.9006 46.2517 75.9278 47.6799 75.926C49.139 75.926 50.5944 75.9097 52.0517 75.9187C53.5144 75.9332 54.9734 75.9767 56.4361 75.9459C57.9441 75.9187 59.4485 75.8571 60.9547 75.8354C62.4029 75.8118 63.8601 75.8191 65.3083 75.8191C66.6912 75.8191 68.076 75.8191 69.4553 75.8009C70.1024 75.7937 70.7494 75.8009 71.4001 75.8082C72.0816 75.8154 72.7631 75.8227 73.4482 75.8118C73.914 75.8064 74.32 75.5744 74.5955 75.2336C74.9454 74.9835 75.1937 74.5974 75.1846 74.1461C75.1538 72.5874 75.1701 71.0286 75.1538 69.4681C75.1302 67.6773 75.1574 65.8902 75.1882 64.1012C75.6178 64.036 76.002 63.9109 76.3591 63.6119C77.1548 62.9449 77.3433 61.8012 77.4267 60.8242C77.4792 60.2189 77.4792 59.6099 77.5028 59.0009C77.5409 58.0711 77.5862 57.1322 77.5535 56.1987C77.5354 55.7094 77.4792 55.22 77.414 54.7342ZM38.9618 41.8347C38.9672 41.7024 38.9745 41.5682 38.9455 41.4323C38.9382 41.3979 38.9328 41.3616 38.9255 41.3272C38.8893 40.7726 38.9074 40.2143 38.9129 39.6561C41.5645 39.7322 44.218 39.734 46.8734 39.7467C48.24 39.7539 49.6066 39.7884 50.9732 39.8228C52.2402 39.8572 53.5035 39.9497 54.7704 39.9914C56.0881 40.0367 57.4094 40.0566 58.7325 40.0838C60.0539 40.111 61.3788 40.1382 62.7001 40.1491C64.045 40.1599 65.3917 40.1726 66.7347 40.1762C67.9183 40.1799 69.1037 40.2306 70.2872 40.2379C70.7259 40.2397 71.1627 40.256 71.5977 40.2886C71.6702 40.9284 71.7173 41.5701 71.7372 42.2153C71.0322 42.2298 70.3253 42.2226 69.6239 42.2153C68.3062 42.1972 66.9867 42.1573 65.669 42.1501C63.0227 42.1356 60.3819 42.0467 57.7357 42.0268C54.9209 42.0069 52.1079 42.0304 49.293 41.9307C47.4824 41.8691 45.668 41.8727 43.8592 41.8764C42.8913 41.8764 41.9252 41.88 40.961 41.8691C40.294 41.8601 39.627 41.851 38.9618 41.8347ZM74.6952 61.2991C74.697 61.2973 74.7007 61.2937 74.7043 61.2901C74.7025 61.2937 74.6989 61.2973 74.6952 61.2991ZM74.3436 55.5916C74.4379 55.5988 74.5303 55.5934 74.6191 55.5789C74.6735 56.3746 74.6644 57.1721 74.6499 57.9714C74.6427 58.4771 74.6336 58.9827 74.6227 59.4921C74.6173 59.9869 74.6245 60.4817 74.5792 60.9729C74.5575 61.0871 74.5321 61.1994 74.5013 61.3118C73.9992 61.3372 73.4917 61.3209 72.9915 61.3082C72.3825 61.2937 71.7735 61.2882 71.1645 61.2882C69.8142 61.2882 68.4584 61.2919 67.119 61.1396C66.7112 61.0671 66.316 60.9638 65.9282 60.8206C65.5385 60.6357 65.1814 60.4219 64.8352 60.1717C64.7047 60.0576 64.5797 59.9397 64.46 59.8147C64.3875 59.7023 64.3241 59.5881 64.2625 59.4703C64.199 59.2999 64.141 59.1277 64.0939 58.9483C64.0649 58.5441 64.0776 58.149 64.1211 57.7466C64.1936 57.3152 64.2824 56.8875 64.431 56.4742C64.48 56.3782 64.5325 56.2876 64.5887 56.1987C64.6576 56.1299 64.7265 56.0628 64.799 56.0012C64.9367 55.916 65.0781 55.8381 65.2249 55.7656C65.582 55.6369 65.9445 55.539 66.3215 55.4719C66.9105 55.4121 67.4978 55.3994 68.0905 55.3849C68.723 55.3668 69.3574 55.3432 69.99 55.3432C71.4436 55.336 72.899 55.481 74.3436 55.5916ZM33.8723 39.0525C33.914 38.8277 33.9647 38.6084 34.0372 38.3927C34.088 38.2912 34.1442 38.1952 34.204 38.1009C34.3617 37.9233 34.5302 37.7566 34.7097 37.6007C34.9399 37.443 35.1791 37.3125 35.4329 37.1911C36.2938 36.863 37.1982 36.6582 38.1045 36.5204C39.3424 36.3881 40.5749 36.3283 41.8183 36.3192C43.1324 36.312 44.4482 36.2993 45.7623 36.2957C46.9875 36.2957 48.2128 36.3029 49.4417 36.3102C50.9116 36.3174 52.3852 36.3265 53.8569 36.3174C56.6174 36.3011 59.3778 36.2939 62.1382 36.3482C63.4595 36.3754 64.7772 36.4026 66.1004 36.4896C67.1897 36.5657 68.2808 36.5911 69.3719 36.6201C69.3973 36.9409 69.419 37.2636 69.4553 37.5862C69.3339 37.5862 69.2124 37.5826 69.091 37.5844C66.51 37.6007 63.929 37.6387 61.3462 37.6007C59.9795 37.5844 58.6129 37.5554 57.2499 37.5119C55.9594 37.4738 54.6725 37.4629 53.3839 37.4122C52.0662 37.3596 50.7503 37.3052 49.4326 37.2889C48.1149 37.269 46.7954 37.2708 45.4777 37.2545C43.02 37.2164 40.5622 37.1276 38.1081 37.0243C38.0918 37.0243 38.0755 37.0225 38.0592 37.0225C37.4248 37.0225 36.9155 37.559 36.8303 38.1662C36.4479 38.4109 36.176 38.8169 36.1778 39.2954C36.1814 40.0929 36.1959 40.8958 36.2974 41.6897C36.243 41.6788 36.185 41.6806 36.127 41.6734C35.7065 41.6081 35.2897 41.5374 34.8855 41.4033C34.755 41.3362 34.6317 41.2619 34.5085 41.1786C34.4432 41.1206 34.3834 41.0607 34.3254 40.9955C34.2275 40.8378 34.146 40.6765 34.0699 40.5097C33.9792 40.2705 33.9085 40.0312 33.856 39.7811C33.8397 39.5364 33.8487 39.2972 33.8723 39.0525ZM69.3339 72.8919C67.9255 72.9263 66.5154 72.9227 65.1071 72.9535C62.0947 73.0115 59.0842 73.1148 56.0682 73.1366C54.6707 73.1438 53.2697 73.1746 51.8722 73.1637C50.386 73.1565 48.9015 73.1366 47.4189 73.1329C46.0179 73.1293 44.6168 73.1474 43.2157 73.1529C41.7077 73.1565 40.1907 73.1637 38.6899 73.0151C38.5703 73.0024 38.4507 72.9916 38.331 72.9789C37.5136 72.8629 36.6907 72.7179 35.9186 72.4315C35.6105 72.2792 35.3132 72.1107 35.0305 71.9167C34.8347 71.7446 34.6625 71.5579 34.4976 71.3585C34.3526 71.1664 34.2112 70.9688 34.0789 70.764C33.9357 70.5356 33.8234 70.2837 33.7146 70.0354C33.5895 69.7272 33.4699 69.4155 33.3521 69.1019C33.2814 68.9152 33.1944 68.7503 33.0839 68.6035C33.0657 66.269 33.0657 63.9363 33.0349 61.6054C33.015 60.3113 32.9896 59.0136 32.9733 57.7194C32.9534 56.3909 32.9697 55.0587 32.966 53.7301C32.966 51.8288 32.9624 49.9275 33.0114 48.0244C33.0476 46.5454 33.0929 45.0682 33.1328 43.5892C33.2198 43.6436 33.305 43.7034 33.392 43.7523C34.1152 44.1511 34.9235 44.2507 35.7283 44.3486C36.4025 44.432 37.0804 44.4682 37.7619 44.4936C39.114 44.5426 40.4716 44.5244 41.8274 44.5244C43.2556 44.5244 44.6802 44.5081 46.1085 44.5009C47.5132 44.49 48.9106 44.5552 50.3135 44.6006C51.6656 44.6422 53.0195 44.6422 54.3753 44.6422C55.78 44.6386 57.1865 44.6277 58.5912 44.6314C59.9687 44.635 61.3444 44.7166 62.7182 44.7999C65.2992 44.9522 67.8911 44.9612 70.4757 44.9921C71.0865 44.9993 71.7064 44.9921 72.3245 44.9667C72.2864 47.5531 72.3209 50.1414 72.3317 52.7278C71.4853 52.6879 70.6389 52.6281 69.7906 52.6191C69.1399 52.6118 68.4892 52.5919 67.8422 52.581C67.7769 52.5792 67.7135 52.5792 67.6482 52.5792C66.9269 52.5792 66.2145 52.6481 65.4986 52.7423C64.721 52.8492 63.929 53.1664 63.262 53.5761C62.7635 53.8824 62.4119 54.292 62.0603 54.7506C61.8392 55.0387 61.7087 55.4466 61.5854 55.7764C61.4513 56.1317 61.3788 56.5123 61.3063 56.8857C61.1196 57.8427 61.0308 58.8124 61.2302 59.7766C61.2791 60.0177 61.3752 60.2515 61.464 60.4817C61.6851 61.0562 61.9842 61.5311 62.3974 61.9897C62.7237 62.354 63.1623 62.6367 63.561 62.9159C63.8184 63.0953 64.1012 63.2421 64.3875 63.3744C64.7935 63.5575 65.214 63.7496 65.6509 63.8566C66.4248 64.0487 67.2332 64.1121 68.0289 64.1556C68.9206 64.2046 69.8178 64.1973 70.7168 64.1901C71.0956 64.1864 71.478 64.1828 71.8587 64.1828C72.0182 64.1828 72.1759 64.1846 72.3354 64.1864C72.3154 67.0719 72.4079 69.9556 72.4314 72.8393C71.4001 72.8502 70.367 72.8683 69.3339 72.8919ZM68.7394 58.2016C68.7394 58.9827 68.0887 59.6352 67.3057 59.6352C66.5245 59.6352 65.872 58.9846 65.872 58.2016C65.872 57.4204 66.5227 56.7679 67.3057 56.7679C68.0869 56.7679 68.7394 57.4204 68.7394 58.2016Z" fill="white"/>
</svg>
