<svg width="134" height="114" viewBox="0 0 134 114" fill="none" xmlns="http://www.w3.org/2000/svg">
<path d="M83.6677 31.5602C74.4752 25.8712 59.6259 25.8712 50.4879 31.5602C41.3499 37.2492 41.4042 46.4975 50.5967 52.1866C59.7891 57.8756 74.6384 57.8756 83.7765 52.1866C92.9145 46.4684 92.8601 37.2492 83.6677 31.5602ZM79.4522 40.5168C78.6635 40.7794 77.8748 41.0711 77.0861 41.3337C76.5966 41.4795 76.2974 41.5087 76.0798 41.392C75.971 41.3045 75.8623 41.1878 75.7535 41.0127C75.2367 40.1083 74.448 39.3206 73.3874 38.6788C73.2514 38.5913 73.0882 38.5037 72.925 38.4162C72.5715 38.212 72.2451 38.0661 71.81 37.9494C70.287 37.5702 68.9271 38.1828 69.1175 39.2039C69.1991 39.7291 69.4711 40.1959 69.7974 40.6918C70.3414 41.5087 70.9397 42.3256 71.3204 43.2008C72.5987 45.9432 69.8246 48.6565 65.3644 48.919C63.7598 49.0065 62.2368 48.8023 60.8226 48.3064C60.1971 48.1021 59.7347 48.1021 59.2724 48.4522C58.81 48.7732 58.2933 49.0649 57.8038 49.3566C57.3686 49.6192 56.9063 49.6484 56.4711 49.3858C56.1448 49.2108 55.8456 49.0066 55.5193 48.8315C55.3017 48.6856 55.0841 48.5689 54.8665 48.4231C54.4042 48.1313 54.4586 47.8396 54.8937 47.5478C55.2473 47.3144 55.6008 47.1102 55.9272 46.8768C56.7159 46.3808 56.7159 46.3517 56.0632 45.7974C55.2473 45.0972 54.513 44.3678 54.0506 43.5509C53.6971 42.9091 53.7787 42.7632 54.7306 42.4131C55.4377 42.1797 56.1176 41.9172 56.8247 41.6838C57.3414 41.5087 57.6406 41.4795 57.8582 41.5962C57.9941 41.6838 58.0757 41.8005 58.1845 42.0047C58.6469 42.9383 59.4356 43.7551 60.3874 44.5429C60.5506 44.6887 60.741 44.8054 60.9042 44.9221C61.4209 45.243 62.0192 45.4764 62.6991 45.6515C64.4669 46.0891 66.0443 45.3306 65.8811 44.1344C65.8267 43.726 65.6364 43.3759 65.3916 42.9966C64.7933 42.0339 64.0046 41.1294 63.5966 40.1083C62.9439 38.4746 63.2431 36.9867 65.3372 35.8197C67.7305 34.5068 70.3958 34.4193 73.2242 35.2362C74.3936 35.5863 74.3665 35.5863 75.2639 35.032C75.5631 34.8278 75.8623 34.6527 76.1614 34.4777C76.8413 34.0692 77.0861 34.0692 77.766 34.4777C77.9836 34.5944 78.174 34.7402 78.3915 34.8569C79.833 35.7322 79.833 35.7322 78.4187 36.6366C77.4125 37.2492 77.4125 37.2492 78.2556 37.9786C78.9083 38.5329 79.425 39.1164 79.8058 39.7582C80.1049 40.0792 79.9961 40.3417 79.4522 40.5168ZM95.9333 59.7136C93.404 61.289 89.2973 61.289 86.7409 59.7136C84.2116 58.1382 84.1844 55.5708 86.7137 53.9954C89.243 52.42 93.3496 52.42 95.9061 53.9954C98.4626 55.5708 98.4898 58.1382 95.9333 59.7136ZM47.5235 29.7222C44.9942 31.2977 40.8875 31.2977 38.331 29.7222C35.7746 28.1468 35.7746 25.5795 38.3038 24.004C40.8331 22.4286 44.9398 22.4286 47.4963 24.004C50.0256 25.5795 50.0527 28.1468 47.5235 29.7222ZM130.337 47.4895L57.8582 2.58997C53.6699 -0.00655377 46.8708 -0.00655377 42.7097 2.58997L3.84583 26.8048C-0.315241 29.4013 -0.288044 33.6316 3.90022 36.2281L76.379 81.1276C80.5673 83.7242 87.3664 83.7242 91.5275 81.1276L130.364 56.9128C134.552 54.3163 134.525 50.086 130.337 47.4895ZM92.3162 72.5795C91.8538 72.1127 91.3099 71.6751 90.6572 71.2667C86.4145 68.641 79.5338 68.641 75.3183 71.2667C74.992 71.4709 74.72 71.6751 74.4208 71.9085L18.1512 37.045C18.6951 36.8116 19.2119 36.5491 19.7014 36.2573C23.9169 33.6316 23.8897 29.3721 19.647 26.7464C19.1847 26.4547 18.6951 26.1921 18.1784 25.9879L41.3771 11.5174C41.7306 11.8383 42.1386 12.13 42.6009 12.4218C46.8436 15.0475 53.7243 15.0475 57.9397 12.4218C58.4293 12.13 58.8372 11.8091 59.218 11.459L115.678 46.41C114.916 46.7018 114.237 47.0227 113.584 47.4311C109.368 50.0568 109.368 54.3455 113.638 56.9712C114.291 57.3796 115.025 57.7005 115.787 57.9923L92.3162 72.5795ZM1.99647 45.2139C3.84583 44.1928 6.70147 44.3386 8.46924 45.4473L84.2388 92.3598L125.197 66.803C126.965 65.6944 129.875 65.6944 131.67 66.803C133.465 67.9116 133.465 69.7204 131.697 70.8291L88.1551 97.9613C86.0338 99.3033 82.5526 99.3033 80.4041 97.9613L78.8811 97.0277L77.8204 96.3567L1.86048 49.3275C0.0111179 48.1897 0.0383146 46.2933 1.99647 45.2139ZM131.751 85.5038L88.2095 112.636C86.0882 113.978 82.607 113.978 80.4585 112.636L78.9627 111.702L77.8748 111.031L1.91488 64.0022C0.0655111 62.8644 0.119904 60.9681 2.07805 59.8886C3.90022 58.8675 6.78306 59.0134 8.55083 60.122L84.2932 107.035L125.251 81.5069C127.046 80.3983 129.929 80.3983 131.724 81.5069C133.519 82.5864 133.546 84.3952 131.751 85.5038Z" fill="white"/>
</svg>
