<svg width="107" height="108" viewBox="0 0 107 108" fill="none" xmlns="http://www.w3.org/2000/svg">
<circle cx="53.5" cy="54.3213" r="53.5" fill="#003F74"/>
<g clip-path="url(#clip0_1401_243)">
<path d="M47.307 54.5241C47.307 55.076 46.8655 55.5175 46.3136 55.5175H42.585C42.0331 55.5175 41.5916 55.076 41.5916 54.5241V50.7955C41.5916 50.2436 42.0331 49.8021 42.585 49.8021H46.3136C46.8655 49.8021 47.307 50.2436 47.307 50.7955V54.5241ZM55.0953 50.8078C55.0953 50.2559 54.6537 49.8144 54.1018 49.8144H50.3733C49.8213 49.8144 49.3798 50.2559 49.3798 50.8078V54.5363C49.3798 55.0883 49.8213 55.5298 50.3733 55.5298H54.1018C54.6537 55.5298 55.0953 55.0883 55.0953 54.5363V50.8078ZM62.8835 50.8078C62.8835 50.2559 62.4419 49.8144 61.89 49.8144H58.1615C57.6096 49.8144 57.168 50.2559 57.168 50.8078V54.5363C57.168 55.0883 57.6096 55.5298 58.1615 55.5298H61.89C62.4419 55.5298 62.8835 55.0883 62.8835 54.5363V50.8078ZM47.307 58.3875C47.307 57.8356 46.8655 57.3941 46.3136 57.3941H42.585C42.0331 57.3941 41.5916 57.8356 41.5916 58.3875V62.1161C41.5916 62.668 42.0331 63.1095 42.585 63.1095H46.3136C46.8655 63.1095 47.307 62.668 47.307 62.1161V58.3875ZM55.0953 58.3875C55.0953 57.8356 54.6537 57.3941 54.1018 57.3941H50.3733C49.8213 57.3941 49.3798 57.8356 49.3798 58.3875V62.1161C49.3798 62.668 49.8213 63.1095 50.3733 63.1095H54.1018C54.6537 63.1095 55.0953 62.668 55.0953 62.1161V58.3875ZM61.89 57.3941H58.1615C57.6096 57.3941 57.168 57.8356 57.168 58.3875V62.1161C57.168 62.668 57.6096 63.1095 58.1615 63.1095H61.89C62.4419 63.1095 62.8835 62.668 62.8835 62.1161V58.3875C62.8835 57.8356 62.4419 57.3941 61.89 57.3941ZM38.5131 64.9738H34.7968C34.2449 64.9738 33.8034 65.4153 33.8034 65.9673V69.6958C33.8034 70.2477 34.2449 70.6893 34.7968 70.6893H38.5253C39.0773 70.6893 39.5188 70.2477 39.5188 69.6958V65.9673C39.5188 65.4153 39.065 64.9738 38.5131 64.9738ZM39.5188 58.3875C39.5188 57.8356 39.0773 57.3941 38.5253 57.3941H34.7968C34.2449 57.3941 33.8034 57.8356 33.8034 58.3875V62.1161C33.8034 62.668 34.2449 63.1095 34.7968 63.1095H38.5253C39.0773 63.1095 39.5188 62.668 39.5188 62.1161V58.3875ZM54.1018 64.9738H50.3733C49.8213 64.9738 49.3798 65.4153 49.3798 65.9673V69.6958C49.3798 70.2477 49.8213 70.6893 50.3733 70.6893H54.1018C54.6537 70.6893 55.0953 70.2477 55.0953 69.6958V65.9673C55.0953 65.4153 54.6537 64.9738 54.1018 64.9738ZM46.3136 64.9738H42.585C42.0331 64.9738 41.5916 65.4153 41.5916 65.9673V69.6958C41.5916 70.2477 42.0331 70.6893 42.585 70.6893H46.3136C46.8655 70.6893 47.307 70.2477 47.307 69.6958V65.9673C47.307 65.4153 46.8655 64.9738 46.3136 64.9738ZM69.6783 55.5298C70.2302 55.5298 70.6717 55.0883 70.6717 54.5363V50.8078C70.6717 50.2559 70.2302 49.8144 69.6783 49.8144H65.9497C65.3978 49.8144 64.9563 50.2559 64.9563 50.8078V54.5363C64.9563 55.0883 65.3978 55.5298 65.9497 55.5298H69.6783ZM31.3504 78.7841H59.6455C59.1917 77.3614 58.9342 75.8405 58.9219 74.2706H31.3504C30.6145 74.2706 30.0258 73.6696 30.0258 72.946V46.2943H74.388V58.6942C75.9579 58.7064 77.4787 58.9395 78.9015 59.3933V36.9607C78.9015 33.735 76.2768 31.1103 73.0511 31.1103H66.5016V27.5045C66.5016 26.327 65.545 25.3704 64.3675 25.3704H61.0437C59.8663 25.3704 58.9096 26.327 58.9096 27.5045V31.1226H45.4918V27.5045C45.4918 26.327 44.5352 25.3704 43.3577 25.3704H40.0339C38.8565 25.3704 37.8998 26.327 37.8998 27.5045V31.1226H31.3504C28.1247 31.1226 25.5 33.7473 25.5 36.973V72.946C25.5 76.1594 28.1247 78.7841 31.3504 78.7841ZM85.5 74.0989C85.5 80.2682 80.4959 85.2722 74.3267 85.2722C68.1574 85.2722 63.1533 80.2682 63.1533 74.0989C63.1533 67.9296 68.1574 62.9256 74.3267 62.9256C80.4959 62.9256 85.5 67.9296 85.5 74.0989ZM79.9685 71.2044C79.9685 70.8487 79.8336 70.5053 79.576 70.26C79.0486 69.7326 78.2024 69.7326 77.675 70.26L72.8181 75.1169L70.9538 73.2526C70.4264 72.7252 69.5801 72.7252 69.0527 73.2526C68.7952 73.5102 68.6603 73.8413 68.6603 74.197C68.6603 74.5527 68.7952 74.8961 69.0527 75.1414L71.8614 77.9501C72.3888 78.4775 73.2351 78.4775 73.7625 77.9501L79.5638 72.1488C79.8336 71.9035 79.9685 71.5601 79.9685 71.2044Z" fill="white"/>
</g>
<defs>
<clipPath id="clip0_1401_243">
<rect width="60" height="60" fill="white" transform="translate(25.5 25.3213)"/>
</clipPath>
</defs>
</svg>
