<svg width="128" height="127" viewBox="0 0 128 127" fill="none" xmlns="http://www.w3.org/2000/svg">
<circle cx="63.5239" cy="63.5" r="63.5" fill="#003F74"/>
<path d="M74.7029 33.7122C71.8644 30.5525 67.8998 28.8125 63.5239 28.8125C59.1247 28.8125 55.147 30.542 52.3216 33.6821C49.4656 36.8569 48.0741 41.1716 48.4008 45.8307C49.0485 55.0226 55.8325 62.5 63.5239 62.5C71.2153 62.5 77.9877 55.0241 78.6455 45.8337C78.9766 41.2167 77.5764 36.911 74.7029 33.7122Z" fill="white"/>
<path d="M89.1959 96.1875H37.852C37.18 96.1965 36.5145 96.0509 35.9038 95.7614C35.2932 95.4718 34.7529 95.0456 34.3222 94.5136C33.3741 93.3451 32.9919 91.7495 33.2749 90.1358C34.5059 83.0945 38.348 77.1796 44.3867 73.0273C49.7516 69.3413 56.5473 67.3125 63.524 67.3125C70.5006 67.3125 77.2963 69.3428 82.6612 73.0273C88.6999 77.1781 92.542 83.093 93.773 90.1343C94.056 91.748 93.6739 93.3436 92.7257 94.5121C92.2952 95.0444 91.7549 95.4709 91.1443 95.7607C90.5336 96.0505 89.868 96.1963 89.1959 96.1875Z" fill="white"/>
</svg>
