<svg width="107" height="108" viewBox="0 0 107 108" fill="none" xmlns="http://www.w3.org/2000/svg">
<circle cx="53.5" cy="54.3213" r="53.5" fill="#003F74"/>
<path d="M56.5 39.5296H57.9792C60.4299 39.5296 62.4167 41.5164 62.4167 43.9671C62.4167 44.784 61.7544 45.4463 60.9375 45.4463C60.1206 45.4463 59.4583 44.784 59.4583 43.9671C59.4583 43.1502 58.7961 42.488 57.9792 42.488H46.1458C45.3289 42.488 44.6667 43.1502 44.6667 43.9671V46.9255C44.6667 47.7424 45.3289 48.4046 46.1458 48.4046H57.9792C60.4299 48.4046 62.4167 50.3914 62.4167 52.8421V55.8005C62.4167 58.2512 60.4299 60.238 57.9792 60.238H56.5V61.7171C56.5 62.534 55.8378 63.1963 55.0208 63.1963C54.2039 63.1963 53.5417 62.534 53.5417 61.7171V60.238H50.5833V61.7171C50.5833 62.534 49.9211 63.1963 49.1042 63.1963C48.2872 63.1963 47.625 62.534 47.625 61.7171V60.238H46.1458C43.6951 60.238 41.7083 58.2512 41.7083 55.8005C41.7083 54.9835 42.3706 54.3213 43.1875 54.3213C44.0044 54.3213 44.6667 54.9835 44.6667 55.8005C44.6667 56.6174 45.3289 57.2796 46.1458 57.2796H57.9792C58.7961 57.2796 59.4583 56.6174 59.4583 55.8005V52.8421C59.4583 52.0252 58.7961 51.363 57.9792 51.363H46.1458C43.6951 51.363 41.7083 49.3762 41.7083 46.9255V43.9671C41.7083 41.5164 43.6951 39.5296 46.1458 39.5296H47.625V38.0505C47.625 37.2335 48.2872 36.5713 49.1042 36.5713C49.9211 36.5713 50.5833 37.2335 50.5833 38.0505V39.5296H53.5417V38.0505C53.5417 37.2335 54.2039 36.5713 55.0208 36.5713C55.8378 36.5713 56.5 37.2335 56.5 38.0505V39.5296ZM71.2917 69.113V35.0921C71.2917 32.6414 69.3049 30.6546 66.8542 30.6546H37.2708C34.8201 30.6546 32.8333 32.6414 32.8333 35.0921V75.0296C32.8333 76.6635 34.1578 77.988 35.7917 77.988C37.4255 77.988 38.75 76.6635 38.75 75.0296V70.5921C38.75 69.7752 39.4122 69.113 40.2292 69.113H71.2917ZM74.25 69.113H81.6458C82.4628 69.113 83.125 69.7752 83.125 70.5921V73.5505C83.125 77.6351 79.8138 80.9463 75.7292 80.9463H35.7917C32.524 80.9463 29.875 78.2973 29.875 75.0296V35.0921C29.875 31.0075 33.1862 27.6963 37.2708 27.6963H66.8542C70.9388 27.6963 74.25 31.0075 74.25 35.0921V69.113ZM75.7292 77.988C78.1799 77.988 80.1667 76.0012 80.1667 73.5505V72.0713H41.7083V75.0296C41.7083 76.1073 41.4202 77.1177 40.9168 77.988H75.7292Z" fill="white"/>
</svg>
