<svg width="80" height="81" viewBox="0 0 80 81" fill="none" xmlns="http://www.w3.org/2000/svg">
<circle cx="40" cy="40.8955" r="40" fill="#011E55"/>
<path d="M50.68 53.1755C47.8 53.1755 45.6933 52.1888 44.36 50.2155C43.7733 49.4155 43.2933 48.3488 42.92 47.0155C42.5467 45.6822 42.36 44.2155 42.36 42.6155C42.36 39.8422 43.08 37.2822 44.52 34.9355C45.96 32.5888 48.0667 30.7755 50.84 29.4955L51.56 30.9355C50.1733 31.5755 48.92 32.5088 47.8 33.7355C46.7333 34.9088 45.9867 36.1622 45.56 37.4955C45.2933 38.2422 45.16 39.1222 45.16 40.1355C45.16 40.9355 45.2133 41.5222 45.32 41.8955C46.7067 40.2422 48.6533 39.4155 51.16 39.4155C53.2933 39.4155 55 40.0288 56.28 41.2555C57.56 42.4288 58.2 44.1088 58.2 46.2955C58.2 48.3755 57.5067 50.0555 56.12 51.3355C54.7333 52.5622 52.92 53.1755 50.68 53.1755ZM32.28 53.1755C29.4 53.1755 27.2933 52.1888 25.96 50.2155C25.3733 49.4155 24.8933 48.3488 24.52 47.0155C24.1467 45.6822 23.96 44.2155 23.96 42.6155C23.96 39.8422 24.68 37.2822 26.12 34.9355C27.56 32.5888 29.6667 30.7755 32.44 29.4955L33.16 30.9355C31.7733 31.5755 30.52 32.5088 29.4 33.7355C28.3333 34.9088 27.5867 36.1622 27.16 37.4955C26.8933 38.2422 26.76 39.1222 26.76 40.1355C26.76 40.9355 26.8133 41.5222 26.92 41.8955C28.3067 40.2422 30.2533 39.4155 32.76 39.4155C34.8933 39.4155 36.6 40.0288 37.88 41.2555C39.16 42.4288 39.8 44.1088 39.8 46.2955C39.8 48.3755 39.1067 50.0555 37.72 51.3355C36.3333 52.5622 34.52 53.1755 32.28 53.1755Z" fill="white"/>
</svg>
