<svg width="142" height="142" viewBox="0 0 142 142" fill="none" xmlns="http://www.w3.org/2000/svg">
<g clip-path="url(#clip0_488_363)">
<path d="M4.74986 25.8254L23.0224 4.49216C23.5662 3.85574 24.3606 3.49097 25.1967 3.49097H92.2966C93.6598 3.49097 94.8329 4.45123 95.1029 5.7867L113.898 98.7654H125.225C132.754 98.7654 138.652 107.401 138.652 118.425C138.652 129.446 132.754 138.082 125.225 138.082H50.0702C38.8577 138.082 28.9076 129.432 25.8718 117.046L4.14282 28.3689C3.92363 27.4723 4.14859 26.5258 4.74986 25.8254ZM13.1481 24.8242H26.7741L23.7428 12.4539L13.1481 24.8242ZM61.0267 132.355H125.225C128.867 132.355 132.924 126.633 132.924 118.425C132.924 110.214 128.867 104.493 125.225 104.493H111.556H61.0264C63.3183 108.027 64.717 112.929 64.717 118.425C64.7173 123.919 63.3186 128.82 61.0267 132.355ZM31.4343 115.682C33.8391 125.497 41.5031 132.355 50.0702 132.355H51.9119C54.855 132.355 58.0937 127.933 58.8332 121.289H41.9714C40.3898 121.289 39.1076 120.008 39.1076 118.425C39.1076 107.401 44.7316 98.7654 51.9116 98.7654H108.056L89.9544 9.21822H28.8463L33.2046 27.0067C33.7311 28.8103 32.2314 30.5514 30.4235 30.5514H10.5738L31.4343 115.682ZM58.8334 115.561C58.0937 108.914 54.8553 104.493 51.9122 104.493C48.9701 104.493 45.7317 108.914 44.9923 115.561H58.8334Z" fill="white"/>
</g>
<defs>
<clipPath id="clip0_488_363">
<rect width="134.591" height="134.591" fill="white" transform="matrix(-1 0 0 1 138.652 3.49097)"/>
</clipPath>
</defs>
</svg>
