<svg width="128" height="127" viewBox="0 0 128 127" fill="none" xmlns="http://www.w3.org/2000/svg">
<circle cx="64.2471" cy="63.5" r="63.5" fill="#003F74"/>
<g clip-path="url(#clip0_1402_246)">
<path d="M52.8572 52.6207H79.6406C80.8922 52.6207 81.9099 51.6135 81.9099 50.3769V35.0013C81.9099 33.7651 80.8927 32.7593 79.6406 32.7593H52.8572C51.6038 32.7593 50.5879 33.7651 50.5879 35.0013V50.3774C50.5851 51.6163 51.6038 52.6207 52.8572 52.6207Z" fill="white"/>
<path d="M49.193 55.5394H83.2995C84.2124 55.5394 84.9581 54.5083 84.9581 53.2441H69.7071V54.1311H62.7938V53.2441H47.5386C47.5358 54.5083 48.2816 55.5394 49.193 55.5394Z" fill="white"/>
<path d="M27.0648 82.0639H53.8453C55.0988 82.0639 56.1147 81.0581 56.1147 79.8228V64.4444C56.1147 63.2064 55.096 62.1992 53.8453 62.1992H27.0648C25.8118 62.1992 24.7959 63.2064 24.7959 64.4444V79.8233C24.7959 81.0581 25.8146 82.0639 27.0648 82.0639Z" fill="white"/>
<path d="M59.1713 82.6841H43.9184V83.5724H37.0023V82.6841H21.7471C21.7471 83.9469 22.4928 84.9779 23.4043 84.9779H57.5094C58.4236 84.9807 59.1713 83.9496 59.1713 82.6841Z" fill="white"/>
<path d="M76.376 64.4444V79.8233C76.376 81.0608 77.3932 82.0644 78.6453 82.0644H105.426C106.68 82.0644 107.695 81.0585 107.695 79.8233V64.4444C107.695 63.2064 106.675 62.1992 105.426 62.1992H78.6453C77.3937 62.1992 76.376 63.2064 76.376 64.4444Z" fill="white"/>
<path d="M95.496 82.6841V83.5724H88.5785V82.6841H73.3247C73.3247 83.9469 74.0705 84.9779 74.9805 84.9779H109.088C110.001 84.9779 110.747 83.9469 110.747 82.6841H95.496Z" fill="white"/>
<path d="M72.6352 89.4209H67.0908V62.1992H65.4034V89.4209H59.8595V90.8094H40.9785V92.4746H59.8595V93.8663H72.6352V92.4746H91.5171V90.8094H72.6352V89.4209Z" fill="white"/>
</g>
<defs>
<clipPath id="clip0_1402_246">
<rect width="89" height="88" fill="white" transform="translate(21.7471 19.3125)"/>
</clipPath>
</defs>
</svg>
