<svg width="128" height="127" viewBox="0 0 128 127" fill="none" xmlns="http://www.w3.org/2000/svg">
<circle cx="64.2104" cy="63.5" r="63.5" fill="#003F74"/>
<g clip-path="url(#clip0_1402_245)">
<path d="M49.3847 77.2588C47.003 77.2588 45.064 78.3095 45.064 79.5965C45.0662 79.6235 45.0708 79.6438 45.0708 79.6708V90.6485L53.6278 89.906V78.6313C52.7746 77.8393 51.2165 77.2813 49.4964 77.2588H49.3847Z" fill="white"/>
<path d="M95.8696 40.7638V36.2976L95.8195 36.2841V36.0748L79.9442 32.3016L79.926 32.2993L60.8251 36.7521V40.6086L56.6116 41.5311V44.3301L57.8937 44.0938V70.2613L53.6346 70.3558V48.6118L41.8177 47.0886L27.7104 50.1373V88.7406L43.9758 90.6306V79.7091C43.9712 79.6821 43.9666 79.6438 43.9666 79.5988C43.9666 77.6526 46.2958 76.1788 49.3846 76.1788H49.5169C52.4757 76.2238 54.8984 77.5851 55.3432 79.3716L55.4139 79.3761L55.4208 79.8891V92.0031L57.8937 92.3001L77.996 94.7031L81.5913 94.2148V83.6826L87.2077 83.3541V93.5421L91.0311 93.0876V83.1021L96.0567 82.8118V92.4913L98.5045 92.1988V44.7351L100.71 44.9668V41.8326L95.8696 40.7638ZM34.8394 58.7593L40.109 58.1631V60.4176L34.8394 60.9261V58.7593ZM29.1294 59.4298L33.9428 58.8898V61.0431L29.1294 61.5043V59.4298ZM33.9862 79.4413L29.0769 79.2231V77.1486L33.9862 77.2858V79.4413ZM33.9862 75.7153L29.0769 75.6388V73.5666L33.9862 73.5598V75.7153ZM33.9862 72.0613L29.1157 72.1221V70.0476L33.9862 69.9058V72.0613ZM33.9862 68.4523L29.1704 68.6458V66.5713L33.9884 66.2991L33.9862 68.4523ZM33.9862 64.6678L29.1704 64.9963V62.9218L33.9884 62.5123L33.9862 64.6678ZM34.0318 57.4318L29.2115 58.0281V55.9513L34.0318 55.2786V57.4318ZM34.0318 53.9421L29.2092 54.6643V52.5898L34.0295 51.7888L34.0318 53.9421ZM40.109 79.6798L34.8394 79.4481V77.2791L40.109 77.4186V79.6798ZM40.109 75.7783L34.8394 75.6973V73.5306L40.109 73.5238V75.7783ZM40.1569 71.9556L34.885 72.0208V69.8496L40.1569 69.7011V71.9556ZM40.1569 68.1801L34.885 68.3916V66.2226L40.1569 65.9256V68.1801ZM40.1569 64.2156L34.885 64.5756V62.4066L40.1569 61.9588V64.2156ZM40.2049 56.6398L34.9283 57.2923V55.1211L40.2049 54.3831V56.6398ZM40.2049 52.9858L34.9283 53.7778V51.6088L40.2049 50.7291V52.9858ZM42.5796 54.2616L47.2722 54.6081V56.7433L42.5796 56.4778V54.2616ZM42.6139 57.9201L47.2539 58.1338V60.2691L42.6139 60.1363V57.9201ZM42.6526 61.4841L47.206 61.5651V63.7026L42.6526 63.6981V61.4841ZM42.7028 65.1561L47.2539 65.1088V67.2463L42.7028 67.3723V65.1561ZM47.2767 70.6393L42.7279 70.8868V68.6728L47.2767 68.5041V70.6393ZM47.2881 53.3458L42.6481 52.9588V50.7403L47.2881 51.2106V53.3458ZM52.1837 70.4526L48.0181 70.6821V68.5626L52.1837 68.4028V70.4526ZM52.2521 67.1428L48.0136 67.2621V65.1381L52.2521 65.0931V67.1428ZM48.0546 63.7903V61.6686L52.2179 61.7406V63.7926L48.0546 63.7903ZM52.2909 60.4873L48.0136 60.3703V58.2463L52.2909 58.4398V60.4873ZM48.0546 56.8671V54.7453L52.2179 55.0513V57.1033L48.0546 56.8671ZM52.2909 53.8026L48.0136 53.4426V51.3208L52.2909 51.7506V53.8026ZM64.012 37.8726L74.2297 35.6091V37.7826L64.012 39.9178V37.8726ZM68.2756 54.4708L76.6227 53.5011V56.3541L68.2756 57.1843V54.4708ZM59.413 55.5306L66.8704 54.6688V57.3598L59.413 58.1001V55.5306ZM66.9365 80.3661L59.3331 80.0533V77.4838L66.9365 77.6683V80.3661ZM66.9365 75.7063L59.3331 75.6141V73.0446L66.9365 73.0086V75.7063ZM66.9365 71.1411L59.397 71.2558V68.6863L66.9365 68.4478V71.1411ZM66.9365 66.6321L59.4746 66.9516V64.3776L66.9365 63.9366V66.6321ZM66.9365 61.8936L59.4746 62.4268V59.8551L66.9365 59.1981V61.8936ZM67.0095 52.8463L59.5407 53.7913V51.2196L67.0095 50.1508V52.8463ZM67.0095 48.4791L59.5407 49.6243V47.0548L67.0095 45.7881V48.4791ZM76.6182 80.7216L68.2734 80.3863V77.6706L76.6182 77.8708V80.7216ZM76.6182 75.7873L68.2734 75.6861V72.9703L76.6182 72.9343V75.7873ZM76.7003 70.9498L68.3464 71.0826V68.3691L76.7003 68.1013V70.9498ZM76.7003 66.1753L68.3464 66.5331V63.8151L76.7003 63.3178V66.1753ZM76.7003 61.1556L68.3464 61.7586V59.0406L76.7003 58.3048V61.1556ZM76.7733 51.5706L68.4125 52.6303V49.9146L76.7733 48.7176V51.5706ZM76.7733 46.9491L68.4125 48.2293V45.5113L76.7733 44.0938V46.9491ZM82.9897 35.7823L93.3854 38.0841V38.1291L93.4378 38.1426V40.2036L83.0536 38.0391V37.9896L82.992 37.9761V35.7823H82.9897ZM96.9715 64.2471V66.9403L89.5871 66.6186V63.7993L96.9715 64.2471ZM89.6555 62.0196V59.2026L96.9167 59.8416V62.5348L89.6555 62.0196ZM89.5916 71.1636V68.3421L96.8574 68.5783V71.2716L89.5916 71.1636ZM96.8529 73.0963V75.7896L89.5871 75.8886V73.0671L96.8529 73.0963ZM79.8667 48.4903L88.2754 49.7053V52.5493L79.8667 51.4761V48.4903ZM79.9305 53.4246L88.248 54.3943V57.2383L79.9305 56.4126V53.4246ZM79.999 58.2283L88.1567 58.9528V61.7968L79.999 61.2118V58.2283ZM80.0925 63.1851L88.2434 63.6778V66.5218L80.0925 66.1686V63.1851ZM88.1818 80.4606L80.2933 80.7823V77.8056L88.1818 77.6211V80.4606ZM88.1818 75.8616L80.1267 75.9673V72.9861L88.1818 73.0198V75.8616ZM88.2845 71.0353L80.1404 70.9026V67.9213L88.2845 68.1913V71.0353ZM88.305 48.0336L79.9876 46.7466V43.7631L88.305 45.1941V48.0336ZM96.9943 80.1838L89.5871 80.4921V77.6706L96.9943 77.4928V80.1838ZM97.0445 58.2081L89.5871 57.4746V54.6553L97.0445 55.5171V58.2081ZM89.6555 52.8306V50.0136L96.9167 51.0576V53.7508L89.6555 52.8306ZM97.0445 49.4286L89.5871 48.2766V45.4596L97.0445 46.7398V49.4286Z" fill="white"/>
</g>
<defs>
<clipPath id="clip0_1402_245">
<rect width="73" height="72" fill="white" transform="translate(27.7104 27.5)"/>
</clipPath>
</defs>
</svg>
