<svg width="24" height="25" viewBox="0 0 24 25" fill="none" xmlns="http://www.w3.org/2000/svg">
<path d="M7 16.5701H4C3.44772 16.5701 3 17.0178 3 17.5701V20.5701C3 21.1224 3.44772 21.5701 4 21.5701H7C7.55228 21.5701 8 21.1224 8 20.5701V17.5701C8 17.0178 7.55228 16.5701 7 16.5701Z" stroke="white" stroke-width="2" stroke-linecap="round" stroke-linejoin="round"/>
<path d="M4 12.5701V6.57007C4 6.03964 4.21071 5.53093 4.58579 5.15585C4.96086 4.78078 5.46957 4.57007 6 4.57007H18C18.5304 4.57007 19.0391 4.78078 19.4142 5.15585C19.7893 5.53093 20 6.03964 20 6.57007V18.5701C20 19.1005 19.7893 19.6092 19.4142 19.9843C19.0391 20.3594 18.5304 20.5701 18 20.5701H12" stroke="white" stroke-width="2" stroke-linecap="round" stroke-linejoin="round"/>
<path d="M12 8.57007H16V12.5701M16 8.57007L11 13.5701" stroke="white" stroke-width="2" stroke-linecap="round" stroke-linejoin="round"/>
</svg>
