<svg width="110" height="84" viewBox="0 0 110 84" fill="none" xmlns="http://www.w3.org/2000/svg">
<g filter="url(#filter0_d_488_372)">
<path d="M103.139 12.6373C102.57 10.389 101.461 8.35346 99.9318 6.74714C98.3589 5.09143 96.4312 3.90706 94.3305 3.30582C86.4685 1.01006 54.9706 1.01006 54.9706 1.01006C41.8394 0.844545 28.7115 1.57252 15.6609 3.18987C13.5601 3.83553 11.636 5.04636 10.0596 6.71468C8.51062 8.36577 7.38868 10.4018 6.80259 12.6326C5.3947 21.0353 4.71065 29.5672 4.75966 38.1133C4.70943 46.6517 5.3918 55.1808 6.80259 63.5939C7.37612 65.8155 8.49387 67.8422 10.047 69.4794C11.6001 71.1166 13.5342 72.2993 15.6609 72.9254C23.6275 75.2165 54.9706 75.2165 54.9706 75.2165C68.1184 75.3822 81.2631 74.6543 94.3305 73.0367C96.4312 72.4355 98.3589 71.2511 99.9318 69.5954C101.461 67.9894 102.568 65.9536 103.134 63.7052C104.579 55.3058 105.281 46.7704 105.232 38.22C105.34 29.6334 104.639 21.0577 103.139 12.6326V12.6373ZM44.9568 53.9935V22.2377L71.1633 38.1179L44.9568 53.9935Z" fill="white"/>
</g>
<defs>
<filter id="filter0_d_488_372" x="0.75708" y="0.987061" width="108.486" height="82.2525" filterUnits="userSpaceOnUse" color-interpolation-filters="sRGB">
<feFlood flood-opacity="0" result="BackgroundImageFix"/>
<feColorMatrix in="SourceAlpha" type="matrix" values="0 0 0 0 0 0 0 0 0 0 0 0 0 0 0 0 0 0 127 0" result="hardAlpha"/>
<feOffset dy="4"/>
<feGaussianBlur stdDeviation="2"/>
<feComposite in2="hardAlpha" operator="out"/>
<feColorMatrix type="matrix" values="0 0 0 0 0 0 0 0 0 0 0 0 0 0 0 0 0 0 0.25 0"/>
<feBlend mode="normal" in2="BackgroundImageFix" result="effect1_dropShadow_488_372"/>
<feBlend mode="normal" in="SourceGraphic" in2="effect1_dropShadow_488_372" result="shape"/>
</filter>
</defs>
</svg>
